<?xml version="1.0" standalone="no"?>
<!DOCTYPE svg PUBLIC "-//W3C//DTD SVG 20010904//EN"
 "http://www.w3.org/TR/2001/REC-SVG-20010904/DTD/svg10.dtd">
<svg version="1.0" xmlns="http://www.w3.org/2000/svg"
 width="512.000000pt" height="512.000000pt" viewBox="0 0 512.000000 512.000000"
 preserveAspectRatio="xMidYMid meet">
<metadata>
Created by potrace 1.16, written by Peter Selinger 2001-2019
</metadata>
<g transform="translate(0.000000,512.000000) scale(0.100000,-0.100000)"
fill="#000000" stroke="none">
<path d="M2494 4596 c-7 -19 3 -36 22 -36 10 0 14 8 12 22 -4 26 -26 36 -34
14z"/>
<path d="M2660 4580 c-12 -12 -20 -34 -20 -52 -1 -46 -15 -105 -40 -161 l-21
-47 -30 17 c-16 10 -37 28 -45 41 -51 78 -173 45 -174 -46 0 -45 14 -69 53
-88 18 -9 35 -22 39 -28 14 -21 8 -75 -13 -111 -12 -19 -31 -66 -44 -102 l-22
-68 -11 50 c-10 49 -21 122 -42 279 -6 43 -19 98 -29 121 l-18 42 30 25 c62
49 31 138 -48 138 -70 0 -108 -78 -65 -133 12 -15 30 -27 40 -27 36 0 74 -98
83 -219 l5 -63 -39 38 c-32 31 -39 45 -39 76 0 41 -27 78 -58 78 -34 0 -62
-29 -62 -64 0 -42 26 -66 71 -66 28 0 44 -9 82 -48 55 -56 59 -68 15 -43 -18
11 -59 26 -90 35 -44 13 -65 26 -92 58 -56 65 -72 149 -31 156 49 9 72 64 39
96 -24 24 -61 20 -80 -9 -14 -22 -15 -30 -4 -53 7 -15 12 -38 11 -51 -5 -48
22 -115 63 -156 31 -30 57 -45 103 -58 99 -27 110 -42 133 -177 25 -144 25
-142 -5 -98 -14 21 -35 43 -48 49 -15 8 -12 2 11 -19 17 -16 35 -44 38 -62 4
-17 12 -29 18 -27 7 3 19 -25 31 -68 l21 -72 -81 38 c-44 21 -93 41 -110 44
-16 3 2 -7 41 -23 138 -56 185 -101 223 -214 20 -60 30 -188 14 -188 -5 0 -34
40 -66 88 -138 208 -198 287 -292 388 -99 106 -100 108 -100 158 -1 96 -58
156 -146 156 -56 0 -104 -29 -130 -80 -32 -59 -24 -105 30 -164 25 -27 25 -28
3 -17 -33 18 -62 70 -62 114 0 40 43 182 62 205 6 7 8 15 5 18 -15 15 -77
-164 -77 -223 0 -39 18 -79 49 -107 20 -18 34 -22 114 -33 l38 -5 -7 -97 c-4
-53 -8 -97 -9 -99 -1 -2 -17 42 -35 98 -18 55 -36 103 -41 106 -5 3 -9 3 -9 1
0 -8 63 -193 72 -209 16 -32 -4 -19 -61 40 -129 131 -168 200 -196 343 l-17
87 23 31 c18 24 21 36 13 48 -19 30 -40 38 -68 25 -32 -14 -35 -55 -6 -75 16
-11 24 -36 36 -108 9 -61 26 -119 48 -166 l34 -71 -36 15 c-43 18 -91 12 -131
-16 l-29 -21 -26 31 c-38 45 -37 49 27 63 35 8 70 61 61 96 -14 61 -80 93
-133 66 -60 -31 -69 -95 -21 -141 16 -16 30 -38 30 -49 0 -11 12 -32 26 -47
25 -26 26 -31 14 -58 l-12 -30 -51 55 c-28 31 -76 73 -106 93 -56 37 -56 37
-53 84 3 39 -1 50 -22 72 -31 30 -55 32 -90 4 -54 -42 -15 -139 50 -126 17 3
38 -2 53 -12 14 -10 49 -33 77 -52 58 -38 137 -130 147 -171 18 -70 95 -123
166 -114 44 6 47 4 75 -30 l29 -36 -34 8 c-42 11 -152 11 -240 0 -84 -11 -121
1 -205 65 -71 53 -89 50 -21 -4 48 -39 117 -77 144 -78 15 0 -137 -47 -158
-49 -19 -1 -39 87 -39 171 0 85 2 92 25 111 27 21 34 65 13 86 -17 17 -64 15
-83 -4 -21 -21 -12 -63 18 -86 12 -9 18 -20 14 -24 -10 -10 -55 25 -75 60 -16
27 -16 29 5 43 43 29 15 95 -31 77 -24 -9 -31 -52 -12 -73 9 -10 16 -22 16
-27 0 -16 59 -82 79 -89 17 -5 19 -15 17 -80 l-1 -74 -55 31 c-86 48 -88 50
-94 79 -9 44 -77 52 -91 10 -13 -42 37 -77 76 -53 10 7 20 8 23 3 3 -5 38 -28
77 -51 72 -43 72 -43 47 -56 -14 -7 -29 -21 -32 -30 -9 -25 20 -64 48 -64 20
0 30 -11 54 -62 16 -35 28 -64 27 -66 -1 -1 -25 2 -54 8 -88 17 -285 168 -364
280 -17 25 -17 25 -3 -6 9 -18 37 -56 64 -85 l50 -54 -42 2 c-41 2 -40 2 7 -7
51 -9 70 -19 157 -84 62 -47 95 -62 159 -72 39 -6 54 -16 130 -96 47 -50 88
-94 89 -99 5 -12 -56 -11 -120 2 -81 16 -328 140 -356 178 -39 53 -102 39
-102 -24 0 -36 15 -55 44 -56 16 0 29 -17 52 -65 l31 -64 -64 0 c-43 0 -62 4
-58 11 12 18 -4 57 -26 64 -25 8 -49 -11 -49 -40 0 -36 19 -43 118 -44 84 -1
96 -4 138 -31 26 -16 83 -41 128 -56 58 -19 90 -36 112 -59 17 -19 48 -38 72
-44 23 -7 42 -14 42 -18 0 -10 -93 9 -118 25 -18 12 -30 13 -51 5 -36 -13
-102 15 -118 50 -22 48 -86 43 -99 -9 -13 -51 54 -85 90 -45 16 18 19 18 56 2
28 -11 38 -21 35 -32 -8 -25 12 -67 35 -74 30 -9 70 19 70 50 0 27 5 27 125
-2 73 -17 228 -90 220 -103 -10 -16 -134 -50 -206 -56 -67 -7 -68 -6 -94 24
-24 29 -43 38 -230 112 -88 35 -111 55 -121 106 -13 68 -101 108 -162 75 -8
-4 10 -6 40 -3 68 5 102 -18 112 -78 7 -46 41 -84 83 -95 64 -16 265 -109 275
-128 9 -17 8 -19 -8 -12 -45 20 -96 18 -126 -5 -25 -18 -39 -21 -78 -17 -78 9
-201 67 -279 131 -68 56 -78 72 -58 94 46 52 19 140 -49 162 -44 15 -74 8
-107 -26 -21 -21 -27 -36 -27 -71 0 -37 5 -50 31 -74 17 -16 42 -29 55 -29 18
0 24 -5 24 -22 0 -21 34 -88 44 -88 2 0 -5 17 -15 37 -45 87 -14 98 68 23 34
-31 87 -68 117 -83 56 -28 56 -28 40 -52 -18 -28 -40 -31 -68 -10 -33 25 -66
19 -79 -15 -13 -34 -23 -37 -55 -14 -12 8 -22 11 -22 6 0 -17 29 -34 53 -30
13 1 30 -2 38 -9 8 -6 32 -16 54 -22 l40 -10 -3 -48 c-3 -41 22 -170 44 -227
5 -14 -1 -13 -41 4 -26 11 -53 20 -61 20 -8 0 -14 10 -14 25 0 18 -7 26 -24
31 -14 3 -29 3 -34 0 -16 -10 -49 23 -55 54 -7 33 -56 70 -93 70 -31 0 -71
-36 -79 -70 -18 -81 77 -131 143 -75 27 22 34 24 56 14 14 -7 26 -18 26 -25 0
-16 31 -34 57 -34 10 0 52 -16 92 -35 70 -34 73 -37 66 -63 -4 -15 -8 -28 -10
-30 -1 -2 -21 7 -44 19 -49 25 -83 20 -124 -19 -48 -46 -34 -108 33 -142 42
-22 96 -25 148 -11 26 8 34 7 41 -7 11 -21 6 -104 -8 -130 -16 -30 -13 -94 5
-120 12 -17 12 -22 2 -22 -7 0 -2 -6 12 -13 35 -19 36 -14 6 26 -18 24 -26 46
-26 75 0 23 2 42 5 42 16 0 58 -37 71 -62 8 -16 32 -48 52 -70 l37 -41 -53 5
c-31 3 -48 2 -40 -3 15 -10 -91 -12 -116 -3 -9 3 -16 15 -16 25 0 14 8 19 28
20 l27 1 -27 7 c-14 3 -36 18 -47 33 -58 74 -164 51 -191 -42 -18 -64 35 -130
105 -130 32 0 81 24 93 46 16 28 214 26 326 -3 50 -13 103 -23 118 -23 18 0
28 -5 28 -15 0 -11 -7 -13 -28 -9 -34 7 -55 -14 -50 -48 4 -30 51 -37 80 -12
15 14 18 26 13 51 -6 31 -5 32 38 38 32 5 53 2 75 -9 29 -15 30 -18 21 -46
-15 -42 5 -97 45 -121 85 -52 176 8 162 107 l-6 44 61 45 c75 55 138 76 250
82 64 4 99 1 135 -11 71 -24 157 -96 188 -158 24 -48 26 -62 26 -183 0 -307
-58 -618 -133 -717 -43 -56 -87 -84 -150 -97 -60 -12 -394 -47 -560 -58 l-112
-8 100 -6 c141 -9 1812 -9 1915 0 55 5 69 8 40 9 -71 3 -467 41 -540 53 -36 5
-84 19 -107 30 -158 76 -275 420 -277 814 -1 217 11 263 88 341 42 41 66 56
111 70 112 32 236 2 286 -68 19 -26 23 -43 21 -83 -3 -43 1 -54 23 -75 71 -66
180 16 134 101 -16 30 -66 48 -103 38 -21 -6 -32 -5 -35 2 -2 6 -17 27 -34 46
-25 29 -28 35 -12 30 11 -4 61 -16 110 -28 53 -12 99 -29 112 -41 12 -11 40
-57 62 -103 23 -46 48 -86 56 -89 8 -3 15 -16 15 -28 0 -13 9 -37 20 -55 43
-71 154 -63 186 14 30 71 -19 153 -92 153 -46 0 -62 -8 -88 -46 l-23 -34 -20
23 c-12 12 -35 53 -52 91 -25 56 -28 67 -13 61 9 -3 38 -11 64 -17 31 -7 48
-17 51 -30 3 -10 10 -18 16 -18 15 0 14 27 -1 34 -7 3 14 3 47 -1 47 -4 67
-12 94 -35 29 -26 40 -29 75 -25 38 5 77 35 88 67 5 15 128 30 151 18 10 -5
17 -5 17 0 0 5 24 12 54 15 29 3 72 15 95 26 56 29 52 35 -6 8 -54 -24 -252
-39 -239 -19 4 7 -7 6 -27 -3 -41 -17 -176 -31 -137 -14 59 26 74 35 93 60 46
63 -35 130 -101 83 -17 -12 -22 -25 -22 -60 0 -25 3 -43 8 -40 4 2 18 -2 32
-10 25 -13 25 -13 3 -15 -26 -2 -25 -1 -78 -17 -22 -7 -59 -12 -83 -12 -61 0
-172 27 -212 52 l-35 21 45 13 c25 8 46 14 47 14 1 0 0 -6 -3 -14 -7 -18 15
-31 28 -18 8 8 8 15 0 25 -21 25 73 66 188 83 181 25 259 58 280 117 12 30 18
35 69 45 82 17 99 15 125 -15 22 -26 23 -28 7 -53 -36 -59 -146 -181 -191
-213 -14 -10 -18 -15 -10 -11 34 16 110 77 110 88 0 6 14 29 32 50 30 37 32
37 39 17 13 -33 27 -25 26 15 -1 28 5 42 27 60 15 13 36 24 46 24 21 0 50 -35
50 -60 0 -28 -43 -60 -82 -60 -43 0 -63 -20 -54 -55 6 -22 11 -26 39 -23 29 3
32 6 32 35 0 24 4 33 17 33 9 0 36 23 61 52 42 49 46 51 71 40 28 -13 35 -49
14 -70 -18 -18 -55 -15 -67 6 -6 9 -11 11 -11 5 0 -7 11 -20 25 -29 23 -15 27
-15 50 0 57 38 10 123 -55 99 -25 -9 -29 -8 -39 14 -6 13 -18 26 -26 29 -11 5
-12 10 -4 26 13 24 5 60 -17 82 -26 27 -67 20 -102 -18 -26 -29 -40 -35 -94
-42 -35 -5 -67 -8 -73 -9 -5 0 -12 14 -16 32 -9 46 9 57 135 82 128 26 157 20
223 -40 24 -22 52 -39 63 -39 13 0 24 -10 30 -25 11 -29 54 -35 64 -9 10 25
-14 46 -43 40 -30 -6 -106 27 -115 50 -5 14 28 34 56 34 18 0 67 40 73 60 9
29 43 25 51 -5 16 -63 111 -97 160 -57 47 37 56 88 25 138 -42 69 -143 63
-178 -10 -20 -43 -53 -50 -53 -11 0 14 -11 37 -25 50 -49 50 -122 20 -149 -60
-15 -42 -46 -61 -47 -28 0 14 -2 13 -10 -5 -9 -23 -9 -23 -40 -5 -17 10 -40
35 -50 55 -21 41 -33 47 -43 23 -6 -17 10 -35 67 -79 23 -17 34 -33 29 -38 -8
-8 -183 -41 -187 -35 -1 1 -7 16 -12 32 -20 64 -95 68 -130 6 l-17 -28 -47 33
c-25 19 -68 43 -95 55 -27 12 -56 28 -65 35 -9 8 -33 22 -53 33 l-38 18 104 6
c57 3 146 3 198 0 119 -7 183 15 272 90 124 106 115 100 140 83 60 -43 163 -3
186 71 11 35 17 41 39 40 14 -1 28 4 31 12 3 10 -3 12 -26 6 -27 -5 -33 -3
-46 23 -8 15 -22 34 -30 41 -24 20 -20 26 33 49 47 22 49 24 55 74 6 42 4 56
-12 77 -22 31 -82 41 -101 18 -8 -10 -24 -13 -50 -10 -32 4 -41 1 -55 -18 -21
-30 -20 -52 2 -72 22 -20 48 -22 58 -5 4 7 3 8 -5 4 -17 -11 -48 2 -54 24 -7
27 21 62 46 58 17 -2 23 -11 25 -40 2 -26 11 -44 29 -58 23 -18 25 -23 14 -43
-10 -19 -20 -22 -75 -22 -59 0 -65 2 -82 28 -11 15 -34 39 -51 53 -39 30 -44
64 -10 64 13 0 34 12 48 26 23 24 23 26 7 55 -17 29 -17 29 7 29 14 0 34 -9
45 -20 25 -25 35 -25 60 0 25 25 25 35 0 60 -27 27 -46 25 -66 -5 -29 -44 -84
-27 -84 25 0 51 55 69 86 28 12 -17 15 -18 10 -5 -3 10 -6 21 -6 23 0 3 -12 9
-26 15 -41 15 -74 -11 -74 -59 0 -21 5 -43 12 -50 9 -9 5 -12 -19 -12 -48 0
-70 -40 -47 -85 25 -48 19 -61 -25 -57 -51 5 -134 -13 -193 -42 -31 -15 -48
-19 -48 -11 0 17 37 47 102 84 66 37 98 73 98 110 0 50 21 103 57 142 42 46
79 67 178 99 111 36 186 125 143 168 -19 19 -66 15 -78 -7 -17 -33 -12 -60 16
-74 l26 -14 -27 -22 c-16 -12 -53 -29 -84 -37 -150 -44 -241 -133 -241 -238 0
-45 -33 -84 -102 -120 -29 -16 -61 -36 -70 -44 -17 -14 -18 -13 -18 12 0 15 9
39 20 53 28 36 27 94 -2 120 -32 28 -69 35 -101 18 -15 -8 -25 -10 -22 -5 11
18 -4 10 -55 -26 -57 -41 -63 -35 -21 22 21 29 46 47 95 68 84 36 81 44 -4 11
-35 -14 -65 -25 -67 -25 -7 0 31 67 64 112 22 31 46 51 70 59 46 15 130 7 151
-15 16 -16 15 -19 -18 -47 -19 -16 -72 -52 -117 -80 -45 -27 -85 -55 -89 -60
-17 -28 196 101 230 139 15 17 26 20 65 15 64 -7 108 16 128 66 l15 38 66 -2
c37 -1 51 -1 32 1 -87 10 -98 14 -110 45 -7 16 -27 41 -44 54 l-31 25 48 -6
c41 -6 51 -4 72 16 56 52 16 144 -62 144 -65 0 -99 -66 -69 -135 6 -13 -1 -17
-34 -22 -23 -3 -53 -15 -66 -28 -26 -25 -49 -82 -40 -104 4 -12 -6 -15 -53
-15 -33 0 -67 -3 -77 -7 -16 -6 -16 -3 3 23 11 16 39 65 61 109 46 93 64 112
124 130 49 16 31 20 -22 5 -19 -5 -48 -21 -63 -36 -26 -24 -57 -27 -57 -5 0 5
23 26 51 46 122 87 173 154 200 259 6 26 20 51 30 57 29 15 25 67 -6 81 -21 9
-28 8 -45 -7 -26 -23 -25 -43 1 -71 19 -20 20 -26 9 -61 -33 -101 -70 -149
-178 -230 -75 -56 -79 -58 -132 -55 -32 2 -73 -3 -99 -12 -24 -9 -46 -16 -48
-16 -3 0 25 32 62 72 47 51 80 99 110 163 46 94 85 225 85 282 0 26 4 33 20
33 11 0 27 11 36 25 15 23 15 27 0 50 -20 30 -56 33 -79 7 -21 -23 -21 -37 0
-72 16 -27 15 -33 -5 -112 -36 -135 -103 -261 -184 -342 -38 -38 -71 -66 -74
-63 -3 3 16 31 42 63 96 119 118 216 69 309 l-26 48 23 24 c21 22 21 26 7 51
-22 41 -70 42 -98 3 -12 -16 -43 -46 -70 -65 -50 -37 -70 -80 -72 -153 0 -25
-1 -25 -8 -8 -22 52 29 210 88 277 35 40 42 61 11 33 -20 -18 -20 -17 -20 68
0 74 2 86 18 91 37 12 67 55 67 96 0 44 -24 76 -72 97 -28 11 -38 11 -67 -1
-49 -20 -69 -55 -64 -113 3 -46 1 -50 -41 -91 -24 -24 -47 -39 -51 -35 -4 4
-13 26 -20 48 -7 22 -26 62 -44 90 -21 34 -31 62 -31 89 0 45 -24 68 -52 50
-36 -22 -23 -84 16 -84 27 0 111 -151 111 -199 0 -19 -43 -54 -67 -54 -7 0
-11 -3 -9 -6 1 -3 -19 -25 -45 -49 l-47 -43 -7 40 c-4 27 -2 48 10 70 13 27
14 36 3 59 -38 80 -156 36 -135 -50 8 -29 55 -53 87 -45 18 5 20 0 20 -41 0
-30 -8 -59 -24 -86 -13 -23 -30 -60 -37 -84 l-13 -44 -29 89 c-33 100 -58 133
-99 133 l-28 0 0 73 c0 39 4 77 8 82 4 6 24 18 45 28 26 12 43 28 53 53 19 46
11 84 -26 119 -62 60 -162 22 -177 -68 -8 -55 -60 -87 -149 -95 l-66 -5 31 61
c17 33 38 88 47 121 15 52 19 59 35 51 49 -27 99 2 99 58 0 56 -70 82 -110 42z
m-107 -258 c16 -17 13 -22 -40 -87 l-57 -68 -10 29 c-7 23 -6 30 9 39 37 21
65 55 65 80 0 30 11 32 33 7z m279 -78 c21 -6 21 -9 14 -153 -6 -153 -23 -261
-50 -326 -9 -21 -20 -34 -24 -29 -5 5 -31 59 -60 119 -76 163 -86 236 -46 320
14 27 14 28 -1 10 -18 -22 -35 -79 -35 -115 0 -14 8 -55 19 -92 l18 -67 -40
35 c-38 32 -112 62 -124 50 -3 -2 15 -10 38 -16 30 -8 60 -28 95 -64 43 -42
56 -64 75 -126 33 -103 33 -257 0 -383 -21 -80 -93 -272 -110 -289 -11 -12
-71 205 -71 257 0 37 10 65 45 129 31 57 45 95 45 122 1 33 6 42 33 59 44 28
57 77 30 113 -44 59 -100 66 -149 17 -47 -47 -16 -145 47 -145 20 0 21 -4 17
-52 -3 -39 -14 -68 -42 -110 -20 -32 -38 -58 -41 -58 -2 0 -11 26 -20 57 -9
32 -26 76 -38 98 -11 23 -25 81 -32 135 -11 80 -13 87 -15 45 -2 -47 -2 -48
-12 -20 -5 17 -9 66 -10 110 0 117 41 222 126 324 35 42 36 42 109 44 61 2 81
7 113 28 l39 26 18 -23 c9 -13 27 -26 39 -30z m608 -9 c7 -8 18 -15 26 -15 30
0 44 -31 44 -99 0 -61 -5 -76 -49 -161 l-49 -95 -5 -135 c-8 -215 -52 -303
-187 -374 -39 -21 -74 -36 -76 -33 -6 6 83 216 100 237 7 8 23 33 35 55 20 37
16 33 -22 -19 -11 -15 -10 -1 5 55 10 41 17 81 15 89 -5 18 -8 9 -26 -65 -12
-49 -49 -142 -54 -134 -1 2 -1 50 1 107 l3 102 30 0 c36 0 84 43 95 85 4 15 1
45 -5 67 -7 22 -10 43 -6 46 3 4 24 -4 46 -16 49 -28 52 -21 3 8 -23 15 -33
27 -29 38 4 11 2 12 -8 4 -11 -10 -13 5 -13 83 1 91 2 94 28 109 15 9 37 30
50 46 27 34 31 35 48 15z m-136 -201 c-8 -71 -13 -77 -53 -63 -129 45 -221
-144 -101 -206 l30 -16 0 -92 c0 -73 -4 -102 -20 -135 -11 -22 -20 -47 -20
-55 0 -7 -17 -49 -39 -93 -26 -54 -52 -92 -82 -117 -47 -41 -75 -50 -42 -14
51 55 59 145 21 237 -13 31 -13 39 3 77 10 23 23 69 30 103 12 63 11 62 79 74
14 2 3 4 -23 3 l-48 -2 6 60 c15 128 82 232 199 311 l51 34 8 -27 c4 -16 4
-51 1 -79z m-365 -5 c24 -26 31 -61 18 -86 -9 -15 -8 -16 5 -5 13 10 17 8 26
-15 23 -60 33 -116 26 -159 -5 -37 -10 -44 -28 -44 -46 0 -123 -31 -164 -65
l-41 -36 14 48 c37 117 56 203 62 273 3 41 10 83 15 93 12 23 43 22 67 -4z
m689 -123 c43 -22 76 -104 67 -165 -8 -55 -44 -128 -86 -176 -39 -44 -53 -45
-45 -2 8 42 16 118 9 92 -3 -11 -9 -24 -14 -30 -5 -5 -9 -38 -9 -72 0 -73 -15
-95 -90 -133 -61 -31 -135 -53 -120 -35 6 7 32 18 58 25 56 14 82 35 82 66 0
29 -27 45 -57 33 -21 -8 -22 -6 -12 18 5 14 12 60 16 102 6 70 9 79 40 109
l34 32 31 -30 c16 -16 40 -30 53 -30 37 0 85 46 85 81 0 40 -40 79 -80 79 -35
0 -80 -38 -80 -68 0 -11 -11 -27 -25 -36 -24 -16 -25 -16 -25 6 0 54 21 94 72
140 47 41 54 44 60 28 4 -11 20 -26 36 -34z m-1702 -31 c-11 -8 -38 -15 -60
-14 l-41 1 44 9 c24 5 46 11 49 14 3 3 10 5 16 5 6 0 2 -7 -8 -15z m131 -120
c-29 -6 -74 -23 -100 -38 l-47 -28 0 62 c0 59 2 64 38 98 l37 36 62 -60 63
-59 -53 -11z m98 -46 c21 -23 59 -75 85 -117 42 -64 47 -78 38 -98 -6 -13 -15
-21 -20 -18 -4 3 -17 2 -29 -1 -15 -5 -20 -14 -18 -34 2 -14 -4 -37 -14 -51
-9 -13 -17 -36 -18 -50 0 -15 -9 3 -23 45 -12 39 -29 81 -36 95 -8 14 -13 29
-12 34 6 19 -11 46 -28 46 -34 0 -33 -31 4 -64 25 -24 39 -50 55 -102 12 -39
21 -75 21 -80 0 -5 20 -49 44 -97 26 -51 39 -87 32 -87 -7 0 -33 13 -58 29
-108 69 -258 347 -258 478 0 38 44 80 101 98 74 23 93 19 134 -26z m850 -36
c-11 -67 -63 -159 -113 -204 -53 -46 -132 -103 -137 -97 -2 1 3 49 10 105 10
73 20 111 35 133 35 49 121 92 198 99 9 1 11 -9 7 -36z m-1104 -171 c23 -53
24 -58 3 -38 -12 12 -20 13 -35 6 -25 -14 -24 -37 3 -51 17 -9 24 -9 33 5 17
23 22 20 27 -14 3 -20 1 -29 -6 -27 -6 2 -41 14 -78 26 -69 23 -149 76 -169
112 -9 17 -7 25 9 42 26 29 45 91 37 119 -12 39 155 -132 176 -180z m-243 73
c-37 -35 -85 -46 -115 -27 -6 4 8 7 31 7 31 0 52 7 77 27 48 38 51 34 7 -7z
m1352 -191 c0 -23 -10 -60 -23 -85 -30 -61 -98 -138 -120 -139 -28 0 -67 -45
-67 -77 0 -18 -12 -39 -31 -58 -17 -16 -52 -63 -79 -103 -44 -66 -48 -70 -54
-48 -17 68 42 291 100 378 19 29 81 96 137 150 l102 96 17 -36 c10 -21 18 -55
18 -78z m458 90 c3 -23 -32 -44 -73 -44 -32 0 -32 14 0 46 30 30 69 29 73 -2z
m338 -36 c16 -12 30 -23 32 -24 8 -5 -72 -154 -93 -174 -23 -22 -23 -20 10 71
48 134 49 137 36 118 -6 -9 -24 -53 -40 -97 -37 -99 -58 -141 -116 -231 -25
-38 -63 -107 -85 -152 -22 -46 -44 -87 -48 -91 -5 -5 -17 1 -27 12 -18 20 -18
22 9 77 33 67 44 167 26 232 -11 42 -90 141 -113 141 -6 0 -2 -10 9 -21 l19
-22 -33 17 -34 17 109 55 c185 95 282 115 339 72z m-2129 -7 c21 -11 18 -13
-67 -30 -60 -13 -147 -57 -163 -82 -14 -23 0 -67 23 -74 13 -4 20 -15 20 -31
0 -18 -9 -27 -36 -39 -50 -21 -80 -19 -141 9 -47 22 -56 32 -88 95 -19 39 -35
77 -35 85 0 10 33 22 111 41 61 14 113 25 114 23 2 -2 -16 -14 -41 -27 -24
-13 -44 -31 -44 -39 0 -12 7 -9 28 10 33 32 64 47 122 64 49 15 168 12 197 -5z
m731 -74 l45 -77 -17 -65 c-9 -36 -19 -99 -23 -141 l-6 -75 -50 48 c-59 57
-142 180 -158 233 -27 88 22 156 103 143 26 -4 38 -2 38 7 0 27 26 -1 68 -73z
m-602 22 c53 -14 59 -21 40 -51 -8 -13 -18 -47 -22 -75 -4 -35 -11 -53 -20
-53 -8 0 -14 10 -14 24 0 13 -9 35 -21 50 -39 50 -129 23 -129 -38 0 -21 -6
-25 -42 -31 -24 -3 -55 -8 -69 -11 -21 -4 -25 -1 -24 16 1 11 11 27 23 36 24
17 30 72 10 92 -15 15 -9 21 39 37 47 17 168 19 229 4z m146 -62 c24 -18 65
-64 91 -102 73 -106 73 -107 9 -69 -57 35 -130 60 -187 66 -28 3 -30 5 -27 42
4 52 28 96 51 96 11 0 39 -15 63 -33z m1427 -33 c38 -15 39 -16 43 -74 5 -71
29 -105 67 -95 24 6 24 5 18 -49 -3 -30 -15 -76 -27 -103 l-22 -48 -52 107
c-70 145 -123 198 -196 198 -22 0 -29 4 -24 13 5 6 -16 -8 -46 -33 -30 -25
-56 -48 -58 -52 -2 -5 -8 -8 -13 -8 -15 0 48 86 79 108 68 48 163 63 231 36z
m-1619 -14 c27 -27 25 -56 -5 -85 -29 -30 -58 -32 -85 -5 -40 40 -11 110 45
110 14 0 34 -9 45 -20z m1736 -98 c7 -37 -4 -56 -29 -47 -20 8 -37 57 -37 109
l1 41 29 -35 c17 -19 33 -49 36 -68z m-936 -35 c20 -73 21 -87 10 -255 -11
-190 -15 -222 -29 -222 -5 0 -15 17 -24 38 -57 145 -57 371 -1 532 8 22 19 -1
44 -93z m-103 51 c-3 -7 -5 -2 -5 12 0 14 2 19 5 13 2 -7 2 -19 0 -25z m785
12 c52 -15 103 -77 155 -188 24 -52 41 -97 39 -100 -3 -2 -20 1 -38 7 -18 7
-70 15 -115 18 -60 4 -83 10 -83 19 0 8 4 14 8 14 5 0 17 7 28 15 18 14 17 15
-11 9 -67 -13 -154 -56 -180 -89 -31 -42 -62 -53 -79 -29 -25 33 -71 -10 -49
-45 9 -13 -2 -29 -56 -86 -37 -38 -74 -81 -84 -95 -14 -21 -14 -16 3 28 79
210 328 525 420 532 3 0 21 -5 42 -10z m-1532 -50 c20 0 40 9 57 26 l26 26 -7
-27 c-4 -17 -3 -24 4 -20 5 3 10 13 10 21 0 33 30 12 40 -28 6 -24 16 -61 22
-83 5 -22 23 -66 39 -99 30 -58 30 -59 7 -52 -13 4 -45 12 -71 18 -38 9 -46
15 -41 27 27 61 6 129 -46 151 -63 26 -129 -20 -133 -93 -2 -39 -7 -43 -38
-27 -15 9 -17 15 -9 30 27 51 -4 103 -62 103 -34 0 -68 -32 -68 -64 0 -29 -18
-23 -40 14 -25 41 -26 67 -1 67 10 0 36 7 57 16 22 9 70 22 108 28 66 12 70
11 92 -11 14 -14 35 -23 54 -23z m256 18 c58 -21 312 -183 362 -231 45 -44 71
-87 92 -158 l18 -60 -24 -16 c-42 -27 -113 -130 -125 -181 -22 -90 -25 -92
-43 -32 -34 111 -38 284 -9 399 4 16 2 22 -5 17 -10 -6 -34 -101 -49 -200 l-8
-48 -110 126 c-121 139 -163 206 -194 305 -37 123 -38 113 6 105 21 -4 61 -15
89 -26z m1040 -10 c-14 -24 -58 -88 -98 -143 -129 -177 -199 -323 -235 -490
-13 -60 -13 -96 -2 -263 13 -199 29 -240 29 -75 0 51 5 126 11 168 10 68 13
74 23 53 7 -15 20 -23 36 -23 21 0 25 5 25 30 0 27 -3 30 -32 30 -18 0 -33 0
-33 1 0 1 7 19 16 40 27 65 100 167 160 224 l58 55 23 -51 c76 -168 31 -412
-97 -528 -58 -52 -174 -126 -199 -126 -23 0 -27 22 -35 180 -2 52 -12 127 -21
165 -41 171 11 366 149 553 40 53 50 62 78 62 43 0 68 25 68 69 0 29 7 42 43
73 55 49 64 48 33 -4z m-1683 3 c14 -6 29 -23 35 -40 6 -17 10 -31 9 -31 -2 0
-21 18 -42 40 -41 42 -41 46 -2 31z m1124 -13 c-3 -8 -6 -5 -6 6 -1 11 2 17 5
13 3 -3 4 -12 1 -19z m-1419 -36 c34 -18 62 -37 62 -43 0 -20 -74 -80 -94 -77
-12 2 -32 25 -50 60 -31 56 -31 56 -12 77 11 12 22 20 25 19 3 -2 34 -18 69
-36z m1243 -29 c17 5 34 -15 22 -27 -15 -15 -52 -3 -79 25 l-29 31 34 -17 c18
-9 42 -15 52 -12z m-1126 -30 c36 -17 43 -27 25 -38 -14 -9 -13 -48 2 -63 27
-27 78 -7 78 30 0 16 5 18 38 13 62 -11 63 -11 46 -44 -19 -39 -15 -65 11 -69
53 -8 66 -14 76 -36 14 -30 -3 -66 -31 -66 -36 0 -100 32 -120 60 -15 22 -43
36 -114 60 -51 17 -107 41 -124 54 l-32 23 23 10 c13 6 36 27 53 46 16 20 30
36 31 36 1 1 18 -7 38 -16z m389 -65 c19 9 27 8 36 -4 7 -8 21 -14 31 -14 27
0 31 -15 10 -41 l-18 -22 -39 30 c-21 17 -56 36 -76 43 -21 6 -38 16 -38 21 0
5 16 1 35 -8 27 -13 40 -14 59 -5z m-76 -24 c43 -18 88 -58 108 -96 8 -15 25
-68 38 -117 l24 -90 -58 29 c-83 42 -161 70 -174 63 -6 -3 1 7 17 24 15 16 27
38 27 49 0 27 -31 55 -72 63 -27 6 -33 11 -30 31 6 56 51 73 120 44z m2213
-21 c-26 -52 -33 -72 -27 -81 8 -14 102 -62 121 -62 43 0 -1 -108 -66 -164
-52 -44 -69 -46 -69 -6 0 28 -24 100 -33 100 -2 0 3 -21 11 -46 13 -41 13 -47
-1 -61 -11 -12 -26 -14 -67 -8 l-51 7 6 42 c4 22 16 70 27 106 17 55 30 74 85
127 69 67 79 74 64 46z m-1961 -26 c22 0 40 -2 40 -6 0 -3 -9 -39 -20 -80 -11
-41 -20 -88 -21 -105 -1 -17 -4 -42 -8 -56 l-7 -25 -16 30 c-9 17 -30 72 -48
124 l-32 93 23 24 c17 18 25 21 36 13 7 -7 31 -12 53 -12z m1465 13 c-3 -5
-16 -10 -28 -9 -21 0 -21 1 -2 9 28 12 37 12 30 0z m-1295 -33 c36 -13 75 -39
114 -76 84 -81 173 -195 181 -233 4 -18 16 -70 27 -116 11 -46 18 -86 15 -88
-2 -3 -35 55 -73 128 -78 152 -128 210 -196 228 -56 16 -135 7 -187 -20 l-42
-21 6 48 c6 41 27 131 40 171 5 14 32 10 115 -21z m1510 -13 c44 -18 70 -55
70 -101 l-1 -28 -13 31 c-8 18 -19 35 -26 39 -9 5 -9 3 -2 -11 11 -22 26 -114
18 -114 -3 0 -19 27 -36 60 -47 92 -98 113 -137 54 -34 -52 28 -105 82 -70 14
9 25 24 25 34 0 9 9 -3 20 -27 14 -30 20 -65 20 -116 0 -63 -5 -82 -35 -143
-39 -77 -126 -167 -198 -204 l-41 -21 32 37 c21 24 32 47 32 66 0 25 4 30 23
30 32 0 47 18 47 56 0 80 -109 98 -140 24 -14 -33 -3 -59 33 -83 50 -33 7 -92
-110 -151 -29 -14 -53 -25 -53 -23 0 3 13 35 29 74 40 99 111 330 111 365 0
16 5 39 11 51 9 17 9 19 0 11 -8 -8 -25 3 -61 38 -27 27 -50 52 -51 56 -4 10
83 52 138 67 68 19 165 18 213 -1z m1010 -44 c55 -55 -24 -135 -82 -83 -25 22
-23 49 7 78 29 30 49 31 75 5z m-1050 -25 c7 -8 10 -25 6 -39 -13 -51 -86 -40
-86 13 0 15 3 31 7 34 12 13 60 7 73 -8z m434 5 c-7 -7 -19 -7 -35 -1 -23 9
-22 10 11 10 23 1 31 -2 24 -9z m-703 -69 c34 -33 49 -56 49 -75 0 -25 -50
-190 -55 -184 -2 2 -10 42 -18 89 -8 47 -27 111 -41 142 -44 92 -12 105 65 28z
m995 6 c12 -32 -38 -129 -97 -188 -64 -64 -79 -71 -79 -36 -1 18 -4 15 -16
-13 -15 -34 -71 -100 -85 -100 -4 0 -10 8 -12 18 -4 14 -5 13 -6 -4 -1 -28
-36 -58 -94 -84 -39 -17 -75 -22 -195 -27 l-147 -5 45 46 c25 26 86 73 135
103 50 31 100 64 113 73 21 17 24 17 80 -13 31 -17 63 -38 70 -46 11 -14 11
-14 6 2 -4 10 -28 29 -55 42 -59 30 -67 43 -41 61 11 8 37 37 57 64 39 53 66
71 150 101 60 22 163 25 171 6z m78 -52 l27 -35 -24 -53 c-14 -28 -27 -60 -31
-69 -3 -11 -15 -18 -28 -18 -22 1 -22 1 -4 15 11 8 15 15 8 15 -6 0 -17 -8
-24 -18 -8 -11 -49 -29 -102 -44 l-89 -26 34 26 c85 65 147 151 164 229 5 28
9 31 24 23 10 -5 30 -25 45 -45z m-2176 7 c18 -8 44 -29 57 -46 28 -38 200
-372 225 -439 l18 -48 -96 92 c-53 51 -100 98 -104 104 -5 9 2 15 22 19 23 4
30 11 30 30 0 32 -35 41 -59 15 -18 -20 -19 -20 -32 23 -12 36 -19 44 -42 46
-16 2 -35 -2 -43 -9 -17 -14 -19 -60 -2 -77 7 -7 -7 -4 -32 5 -91 36 -190 156
-190 230 0 40 19 54 88 69 64 13 111 9 160 -14z m2432 18 c0 -5 -13 -16 -29
-24 -27 -15 -29 -14 -24 4 6 23 53 41 53 20z m-1914 -190 c62 -183 84 -302 84
-445 0 -92 -14 -217 -26 -237 -11 -17 -112 134 -165 246 l-29 61 37 6 c21 3
48 9 60 13 12 4 24 2 28 -4 3 -5 14 -10 23 -9 12 0 11 3 -5 9 -13 5 -23 14
-23 19 0 5 -12 3 -27 -5 -16 -7 -44 -14 -64 -14 -34 0 -38 4 -53 40 -17 43
-56 178 -56 194 0 6 5 5 12 -2 18 -18 75 -15 87 6 6 9 11 11 11 5 0 -7 5 -13
11 -13 7 0 10 12 6 33 -3 20 0 40 9 52 31 42 4 125 -41 125 -8 0 -15 3 -15 7
0 11 73 83 78 78 3 -3 29 -77 58 -165z m-96 50 c11 -11 20 -31 20 -45 0 -34
-36 -68 -63 -61 -12 3 -32 6 -43 6 -20 0 -21 3 -14 36 9 38 45 84 67 84 7 0
22 -9 33 -20z m1210 3 c8 -7 -47 -48 -103 -77 -28 -14 -52 -25 -53 -23 -2 1 5
28 14 60 l17 57 60 -6 c33 -4 62 -9 65 -11z m-1886 -60 l59 -63 -49 0 c-28 0
-76 -7 -108 -15 -68 -18 -91 -10 -112 40 -23 56 -19 60 59 83 39 11 77 20 82
19 6 -1 37 -30 69 -64z m-690 21 c9 -8 16 -22 16 -30 0 -16 -35 -54 -50 -54
-12 0 -50 37 -50 48 0 4 7 18 16 30 18 26 46 28 68 6z m460 -33 c3 -21 17 -49
31 -63 l26 -26 -32 -11 c-46 -16 -89 -14 -128 7 -30 15 -34 22 -36 65 -3 51
-4 49 65 60 64 10 67 9 74 -32z m-610 14 c11 -8 28 -15 38 -15 10 0 18 -4 18
-9 0 -5 3 -17 7 -27 6 -15 0 -16 -46 -12 -63 6 -103 37 -81 62 16 20 39 20 64
1z m265 -11 c13 -12 -14 -32 -50 -37 -24 -3 -44 -5 -45 -4 -1 1 0 15 3 30 5
27 7 28 47 22 22 -4 43 -9 45 -11z m2997 -26 c7 -23 -2 -33 -113 -125 -77 -64
-191 -90 -271 -62 l-32 11 48 38 c26 21 61 50 77 64 26 23 109 54 225 85 52
14 58 13 66 -11z m98 -46 c-16 -4 -54 15 -54 27 0 5 15 1 34 -8 18 -9 27 -17
20 -19z m-3094 12 c0 -8 13 -29 29 -45 43 -42 118 -37 161 10 3 3 29 -6 58
-20 l53 -26 -58 -25 c-32 -14 -81 -29 -110 -32 -54 -7 -117 -25 -110 -32 2 -3
15 -1 28 4 13 5 45 12 72 16 l47 7 -21 -36 c-34 -57 -30 -148 10 -230 49 -99
119 -148 274 -192 117 -33 115 -49 -6 -47 -98 1 -143 17 -238 80 -110 74 -169
145 -209 250 -18 49 -44 106 -57 126 -12 21 -23 49 -23 62 0 27 -32 51 -55 42
-8 -3 -19 -14 -25 -26 -9 -17 -7 -24 13 -43 22 -20 24 -27 18 -96 -8 -93 -19
-83 -55 49 -28 103 -33 174 -13 187 6 4 30 9 52 10 22 0 63 6 90 11 72 14 75
14 75 -4z m658 -63 c82 -28 137 -62 178 -109 l35 -41 -47 21 c-38 16 -61 19
-113 16 -110 -8 -182 -59 -237 -168 -15 -30 -28 -56 -29 -58 -1 -1 -14 2 -27
7 -37 14 -67 111 -34 111 29 0 66 41 66 73 0 85 -117 107 -150 28 -15 -36 3
-81 38 -96 16 -7 22 -18 22 -40 0 -44 34 -95 64 -95 29 0 47 -37 25 -51 -11
-7 -9 -9 6 -9 13 0 27 -13 39 -35 11 -20 34 -51 52 -69 18 -19 31 -36 28 -39
-9 -9 -212 49 -269 77 -66 33 -128 101 -149 163 -22 65 -21 150 4 190 17 29
57 60 65 51 2 -2 -1 -24 -7 -49 -16 -70 -3 -129 43 -194 31 -43 46 -55 62 -53
16 2 22 10 22 28 0 22 -5 25 -34 26 -58 0 -100 82 -86 170 8 57 34 87 96 114
117 50 245 62 337 31z m192 -1 c0 -5 -4 -10 -9 -10 -6 0 -13 5 -16 10 -3 6 1
10 9 10 9 0 16 -4 16 -10z m60 -71 c16 -28 5 -49 -24 -49 -27 0 -51 32 -42 56
8 22 54 17 66 -7z m-946 -183 c19 -56 33 -102 32 -104 -7 -6 -63 21 -84 41
-51 47 -63 102 -41 182 l11 40 24 -30 c12 -16 39 -74 58 -129z m871 98 c22
-13 55 -37 73 -52 l32 -29 -60 -16 c-105 -30 -156 -21 -184 31 -9 15 -15 22
-16 15 0 -21 50 -71 79 -78 18 -4 61 2 109 16 76 20 80 21 106 4 32 -21 33
-31 4 -39 -43 -10 -118 -65 -118 -85 0 -22 29 -36 44 -21 7 7 7 16 -2 31 -12
18 -8 22 50 49 l62 29 39 -22 c22 -12 67 -52 101 -88 146 -154 201 -319 106
-319 -34 0 -62 16 -133 73 -70 57 -133 177 -94 177 21 0 57 48 57 76 0 27 -43
64 -74 64 -67 0 -98 -96 -43 -132 12 -7 39 -90 32 -96 -2 -2 -26 3 -52 12 -26
9 -74 19 -106 23 -53 5 -61 10 -97 52 -22 25 -40 41 -40 34 0 -6 4 -14 10 -18
5 -3 19 -19 30 -35 l21 -30 -80 0 -80 0 -58 56 c-44 42 -53 54 -35 51 63 -14
124 50 102 107 -13 36 -54 60 -90 52 -38 -7 -38 4 2 49 77 88 210 114 303 59z
m159 -38 c31 -35 56 -67 56 -71 0 -11 -67 31 -121 77 -35 30 -46 44 -37 50 28
17 48 6 102 -56z m2210 43 c34 -27 35 -77 2 -115 -19 -23 -32 -28 -71 -28 -57
-1 -71 14 -61 69 8 43 54 95 84 95 11 0 31 -9 46 -21z m-936 -16 c-2 -10 -24
-28 -50 -40 -62 -30 -76 -56 -53 -99 55 -102 225 -72 225 40 0 31 -27 54 -76
64 -31 7 -38 12 -36 28 6 28 7 28 56 10 47 -18 91 -61 108 -105 5 -14 10 -58
10 -98 0 -60 -4 -80 -28 -123 -33 -61 -65 -87 -155 -130 -81 -38 -169 -53
-241 -42 l-53 8 66 31 c37 17 93 50 124 74 32 24 71 54 87 65 46 34 46 38 0
15 -40 -20 -45 -21 -61 -7 -45 41 -113 -11 -99 -75 2 -8 -16 -24 -47 -39 -45
-22 -66 -25 -215 -30 -144 -5 -172 -9 -212 -29 -63 -30 -121 -96 -147 -166
-71 -189 -26 -757 75 -957 29 -57 106 -144 136 -154 11 -3 17 -8 15 -11 -7 -6
-64 24 -117 62 -123 90 -184 327 -183 720 0 172 3 211 21 277 45 166 131 245
296 274 101 18 128 34 195 117 44 55 59 67 83 67 40 0 82 24 96 55 17 36 15
55 -8 92 -24 41 -73 52 -119 28 -49 -25 -60 -70 -36 -150 4 -14 -7 -37 -40
-79 -69 -89 -91 -102 -185 -109 -85 -5 -147 -29 -194 -72 -14 -13 -26 -22 -26
-18 0 3 17 37 37 76 44 83 174 222 268 284 140 94 318 159 438 162 41 1 48 -2
45 -16z m88 -66 c22 -20 25 -28 19 -56 -8 -37 -54 -71 -98 -71 -57 0 -107 42
-107 89 0 58 131 85 186 38z m163 -17 c33 -16 82 -52 109 -80 38 -39 56 -50
81 -50 20 0 31 -5 31 -14 0 -11 -10 -13 -39 -9 -53 7 -104 -11 -180 -66 -47
-33 -63 -40 -57 -26 23 56 18 187 -10 259 -8 22 -3 21 65 -14z m-492 -10 c33
-12 56 -50 46 -77 -20 -59 -85 -81 -123 -43 -33 33 -20 97 24 118 11 6 21 11
22 11 1 1 15 -4 31 -9z m1031 -27 c4 -14 -25 -17 -53 -7 -13 6 -14 9 -3 15 18
12 50 7 56 -8z m-3252 -53 c29 -19 74 -89 74 -118 0 -19 -74 -35 -126 -27 -54
8 -104 49 -104 86 0 13 12 36 27 51 33 34 81 37 129 8z m103 -20 c46 -1 104
-36 171 -104 35 -36 61 -66 58 -66 -4 0 -42 11 -84 25 -42 14 -93 25 -113 24
-31 0 -27 -3 24 -14 33 -7 72 -19 87 -27 25 -14 26 -15 12 -44 -8 -17 -28 -38
-44 -48 -30 -17 -30 -17 -30 7 0 34 -24 51 -61 43 -27 -5 -30 -3 -24 13 6 21
-18 115 -43 168 -9 18 -12 39 -7 50 7 17 8 16 18 -4 6 -15 19 -23 36 -23z
m3115 -26 c30 -29 11 -84 -29 -84 -28 0 -56 35 -48 59 16 43 49 54 77 25z
m-305 -53 c25 -25 18 -54 -21 -86 -24 -21 -32 -23 -53 -13 -44 20 -46 85 -3
106 34 16 56 14 77 -7z m-122 -21 c-9 -23 -8 -36 6 -64 9 -19 13 -37 9 -40
-14 -9 -127 -26 -170 -26 l-45 0 19 21 c16 18 182 139 190 139 1 0 -3 -13 -9
-30z m-2355 -135 c39 -20 95 -38 123 -41 47 -6 51 -9 48 -28 -5 -25 21 -96 35
-96 5 0 12 18 16 39 10 63 39 87 135 110 138 34 144 31 73 -36 -33 -32 -64
-69 -67 -83 -5 -20 -2 -18 15 10 12 19 33 45 47 57 l27 22 55 -29 c31 -16 70
-34 86 -40 26 -10 28 -13 13 -21 -10 -6 -78 -14 -150 -19 -148 -11 -203 -23
-298 -69 -76 -36 -153 -41 -259 -15 -52 13 -75 25 -109 58 -84 80 -87 116 -11
148 23 10 46 29 57 48 15 29 20 31 54 26 21 -4 70 -22 110 -41z m657 -14 c67
-21 151 -66 151 -82 0 -16 -187 0 -255 22 -87 28 -93 33 -71 58 25 27 92 28
175 2z m1739 -33 c31 -31 1 -98 -44 -98 -48 0 -70 55 -37 92 18 20 63 24 81 6z
m-2172 -35 c-8 -21 -16 -45 -19 -53 -3 -9 -9 0 -14 20 -12 41 -1 70 27 70 19
0 19 -2 6 -37z m264 -134 c-30 -16 -67 -42 -83 -56 -27 -27 -28 -27 -56 -10
-34 20 -79 22 -116 5 -19 -9 -31 -8 -52 2 l-28 13 50 23 c52 24 203 51 290 53
l50 1 -55 -31z m1900 1 c0 -21 -41 -50 -71 -50 -37 0 -69 16 -69 35 0 10 18
15 68 18 37 2 68 4 70 5 1 1 2 -2 2 -8z m-1241 -980 c14 -70 42 -142 69 -175
9 -11 2 -7 -16 10 -22 19 -40 51 -54 95 -20 60 -22 87 -24 355 l-1 290 7 -255
c4 -140 13 -284 19 -320z"/>
<path d="M2498 3639 c-24 -14 -23 -56 2 -69 42 -22 82 34 48 68 -14 14 -27 15
-50 1z"/>
<path d="M2620 3485 c0 -20 5 -25 24 -25 14 0 27 4 30 9 11 18 -6 41 -30 41
-19 0 -24 -5 -24 -25z"/>
<path d="M2620 3325 c-16 -19 -6 -45 19 -45 23 0 35 28 20 46 -15 18 -24 18
-39 -1z"/>
<path d="M2575 3299 c-10 -15 3 -25 16 -12 7 7 7 13 1 17 -6 3 -14 1 -17 -5z"/>
<path d="M3374 4164 c-10 -8 -12 -12 -4 -8 8 4 30 11 50 15 35 7 35 7 4 8 -16
0 -39 -6 -50 -15z"/>
<path d="M3088 3609 c-10 -5 -18 -15 -18 -22 0 -8 4 -6 11 3 9 12 11 13 16 1
3 -7 14 -22 23 -31 10 -10 16 -21 13 -24 -12 -12 -33 -5 -54 17 l-21 22 11
-22 c18 -35 60 -41 83 -13 10 12 18 28 18 35 0 28 -55 50 -82 34z"/>
<path d="M2871 3992 c-1 -14 11 -36 29 -53 16 -17 34 -38 40 -47 5 -10 10 -12
10 -5 0 7 -15 30 -34 50 -18 21 -36 47 -39 58 -4 18 -5 17 -6 -3z"/>
<path d="M2950 3866 c0 -12 29 -76 34 -76 3 0 -2 17 -11 38 -16 38 -23 50 -23
38z"/>
<path d="M2870 3850 c0 -5 7 -10 15 -10 8 0 15 5 15 10 0 6 -7 10 -15 10 -8 0
-15 -4 -15 -10z"/>
<path d="M2847 3294 c-8 -8 1 -24 14 -24 5 0 9 7 9 15 0 15 -12 20 -23 9z"/>
<path d="M3529 3341 c-32 -33 -36 -58 -14 -100 16 -33 33 -41 80 -41 25 0 40
8 59 31 30 35 30 35 15 78 -12 33 -52 61 -89 61 -12 0 -35 -13 -51 -29z m90 4
c47 -24 55 -74 19 -112 -27 -29 -71 -30 -98 -3 -33 33 -30 75 6 108 30 26 36
27 73 7z"/>
<path d="M2316 3284 c-19 -18 -20 -28 -6 -55 21 -39 90 -16 90 30 0 16 -30 41
-50 41 -10 0 -26 -7 -34 -16z"/>
<path d="M1960 3251 c0 -15 6 -21 21 -21 14 0 19 5 17 17 -5 26 -38 29 -38 4z"/>
<path d="M3240 3260 c-20 -6 -21 -8 -5 -8 11 0 29 3 40 8 25 11 -1 11 -35 0z"/>
<path d="M3330 3210 c0 -5 5 -10 10 -10 6 0 10 5 10 10 0 6 -4 10 -10 10 -5 0
-10 -4 -10 -10z"/>
<path d="M3147 3143 c-16 -15 -6 -63 14 -74 46 -24 93 33 57 69 -13 13 -60 16
-71 5z"/>
<path d="M1411 3114 c0 -11 3 -14 6 -6 3 7 2 16 -1 19 -3 4 -6 -2 -5 -13z"/>
<path d="M1422 3070 c0 -14 2 -19 5 -12 2 6 2 18 0 25 -3 6 -5 1 -5 -13z"/>
<path d="M2334 2816 c-10 -26 4 -48 28 -44 17 2 23 10 23 28 0 18 -6 26 -23
28 -13 2 -25 -3 -28 -12z"/>
<path d="M2906 2594 c-9 -22 17 -49 39 -40 10 3 15 15 13 28 -4 29 -42 37 -52
12z"/>
<path d="M2845 2280 c-11 -17 5 -32 21 -19 7 6 11 15 8 20 -7 12 -21 11 -29
-1z"/>
<path d="M3620 2785 c0 -8 7 -15 15 -15 8 0 15 7 15 15 0 8 -7 15 -15 15 -8 0
-15 -7 -15 -15z"/>
<path d="M3168 2684 c-13 -27 -5 -49 24 -68 27 -17 68 8 68 42 0 15 -5 33 -12
40 -22 22 -67 14 -80 -14z"/>
<path d="M3320 2615 c0 -22 4 -26 23 -23 14 2 22 10 22 23 0 13 -8 21 -22 23
-19 3 -23 -1 -23 -23z"/>
<path d="M3819 2693 c-13 -16 -12 -17 4 -4 9 7 17 15 17 17 0 8 -8 3 -21 -13z"/>
<path d="M3912 2701 c-8 -4 -12 -19 -10 -32 4 -29 45 -34 61 -7 19 30 -19 60
-51 39z"/>
<path d="M3584 2449 c-17 -19 -17 -23 -3 -47 18 -33 44 -39 70 -16 24 22 24
46 1 67 -25 23 -45 21 -68 -4z m66 -4 c14 -17 5 -51 -17 -59 -17 -7 -53 19
-53 39 0 32 48 46 70 20z"/>
<path d="M1869 2682 c-26 -22 -31 -75 -8 -97 26 -26 63 -28 92 -5 36 29 36 71
1 99 -33 26 -55 26 -85 3z"/>
<path d="M1910 2535 c0 -8 5 -15 10 -15 6 0 10 7 10 15 0 8 -4 15 -10 15 -5 0
-10 -7 -10 -15z"/>
<path d="M1400 2492 c0 -24 8 -32 26 -25 22 8 17 43 -6 43 -13 0 -20 -7 -20
-18z"/>
<path d="M1664 2349 c-10 -17 13 -36 27 -22 12 12 4 33 -11 33 -5 0 -12 -5
-16 -11z"/>
<path d="M1502 1929 c2 -6 8 -10 13 -10 5 0 11 4 13 10 2 6 -4 11 -13 11 -9 0
-15 -5 -13 -11z"/>
<path d="M1940 2016 c0 -9 7 -16 16 -16 17 0 14 22 -4 28 -7 2 -12 -3 -12 -12z"/>
<path d="M1850 1989 c0 -24 23 -21 28 4 2 10 -3 17 -12 17 -10 0 -16 -9 -16
-21z"/>
<path d="M2916 2008 c-21 -29 -20 -51 2 -71 38 -35 102 -9 102 40 0 49 -76 72
-104 31z m78 -4 c33 -32 13 -74 -36 -74 -38 0 -55 33 -33 66 18 28 46 31 69 8z"/>
<path d="M3432 1874 c2 -11 11 -20 22 -22 13 -3 17 1 14 14 -2 11 -11 20 -22
22 -13 3 -17 -1 -14 -14z"/>
<path d="M3176 1841 c-4 -7 -5 -15 -2 -18 9 -9 19 4 14 18 -4 11 -6 11 -12 0z"/>
<path d="M3747 2034 c-8 -8 1 -24 14 -24 5 0 9 7 9 15 0 15 -12 20 -23 9z"/>
<path d="M1427 1766 c-3 -8 -26 -24 -51 -35 -32 -14 -47 -27 -52 -45 -15 -62
22 -105 100 -113 37 -5 46 -2 60 18 26 38 21 83 -14 112 -16 14 -35 27 -42 29
-10 4 -10 8 1 22 8 9 12 19 9 22 -3 3 -8 -2 -11 -10z m31 -69 c49 -40 27 -107
-35 -107 -63 0 -104 59 -70 102 23 29 73 32 105 5z"/>
<path d="M2402 4508 c4 -30 43 -33 43 -3 0 13 -8 21 -23 23 -20 3 -23 0 -20
-20z"/>
<path d="M3014 4516 c-9 -24 4 -48 23 -44 12 2 18 12 18 28 0 29 -32 41 -41
16z"/>
<path d="M2527 4494 c-8 -8 1 -24 14 -24 5 0 9 7 9 15 0 15 -12 20 -23 9z"/>
<path d="M2300 4440 c0 -5 5 -10 11 -10 5 0 7 5 4 10 -3 6 -8 10 -11 10 -2 0
-4 -4 -4 -10z"/>
<path d="M3006 4435 c-11 -29 -7 -44 15 -55 27 -15 51 5 47 39 -2 20 -9 27
-29 29 -17 2 -29 -3 -33 -13z"/>
<path d="M2672 4408 c2 -13 10 -23 18 -23 8 0 16 10 18 23 3 17 -2 22 -18 22
-16 0 -21 -5 -18 -22z"/>
<path d="M1842 4411 c-8 -4 -12 -19 -10 -32 2 -19 9 -24 33 -24 24 0 31 5 33
24 4 23 -11 41 -33 41 -5 0 -16 -4 -23 -9z"/>
<path d="M3304 4386 c-11 -28 1 -51 25 -51 32 0 49 28 32 49 -17 20 -50 21
-57 2z"/>
<path d="M1717 4312 c-50 -55 29 -146 83 -97 11 10 22 16 23 14 2 -2 16 -25
31 -51 15 -27 31 -48 36 -48 4 0 17 -3 27 -6 10 -3 6 2 -8 10 -32 18 -79 95
-79 128 0 13 -7 34 -16 46 -19 28 -74 30 -97 4z"/>
<path d="M3010 4310 c0 -26 34 -44 49 -26 17 20 2 46 -25 46 -17 0 -24 -6 -24
-20z"/>
<path d="M1552 4308 c-18 -18 -15 -35 10 -52 15 -11 26 -12 40 -5 32 17 16 69
-22 69 -9 0 -21 -5 -28 -12z"/>
<path d="M1896 4261 c-11 -18 6 -42 28 -39 29 4 29 42 -1 46 -11 2 -24 -1 -27
-7z"/>
<path d="M3603 4224 c-7 -19 11 -39 26 -30 16 10 13 33 -4 40 -9 3 -18 -1 -22
-10z"/>
<path d="M1474 4205 c-4 -9 -2 -21 4 -27 15 -15 44 -1 40 19 -4 23 -36 29 -44
8z"/>
<path d="M3210 4176 c19 -7 37 -12 39 -10 8 7 -6 14 -40 19 l-34 5 35 -14z"/>
<path d="M3702 4180 c-49 -20 -54 -95 -7 -126 47 -31 105 3 105 60 0 51 -50
84 -98 66z"/>
<path d="M2325 4139 c-9 -29 15 -53 44 -44 17 5 21 13 19 33 -4 36 -53 45 -63
11z"/>
<path d="M1363 4134 c-3 -8 2 -23 11 -32 15 -15 17 -15 32 0 21 21 11 48 -16
48 -11 0 -23 -7 -27 -16z"/>
<path d="M2131 4122 c-2 -50 51 -113 94 -111 13 0 9 4 -12 10 -36 11 -62 42
-73 92 -6 24 -8 27 -9 9z"/>
<path d="M1237 4124 c-4 -4 -7 -16 -7 -26 0 -13 7 -18 26 -18 21 0 25 4 22 22
-3 23 -27 35 -41 22z"/>
<path d="M2037 4116 c-7 -19 18 -40 39 -32 8 3 14 14 12 23 -4 22 -43 29 -51
9z"/>
<path d="M1948 4113 c7 -3 16 -2 19 1 4 3 -2 6 -13 5 -11 0 -14 -3 -6 -6z"/>
<path d="M1650 4070 c0 -5 5 -10 10 -10 6 0 10 5 10 10 0 6 -4 10 -10 10 -5 0
-10 -4 -10 -10z"/>
<path d="M3572 4066 c1 -10 8 -17 13 -17 15 1 12 24 -3 29 -9 3 -13 -2 -10
-12z"/>
<path d="M1470 4045 c0 -8 7 -15 15 -15 8 0 15 7 15 15 0 8 -7 15 -15 15 -8 0
-15 -7 -15 -15z"/>
<path d="M2130 3950 c-11 -11 -20 -24 -20 -30 0 -12 37 -50 48 -50 4 0 18 7
30 16 27 19 29 60 3 74 -28 14 -38 13 -61 -10z"/>
<path d="M3947 3964 c-10 -10 -9 -42 2 -48 18 -11 42 6 39 28 -3 21 -28 33
-41 20z"/>
<path d="M3754 3895 c-4 -9 -2 -21 4 -27 16 -16 47 -5 47 17 0 26 -42 34 -51
10z"/>
<path d="M1306 3772 c-3 -6 -1 -14 5 -17 15 -10 25 3 12 16 -7 7 -13 7 -17 1z"/>
<path d="M3966 3754 c-10 -9 -15 -23 -12 -31 3 -8 6 -17 6 -19 0 -2 11 -4 25
-4 29 0 43 25 28 48 -14 23 -29 25 -47 6z"/>
<path d="M4130 3736 c-6 -8 -10 -25 -8 -38 2 -19 9 -23 38 -23 29 0 36 4 38
23 4 28 -14 52 -38 52 -10 0 -23 -7 -30 -14z"/>
<path d="M4115 3650 c3 -5 8 -10 11 -10 2 0 4 5 4 10 0 6 -5 10 -11 10 -5 0
-7 -4 -4 -10z"/>
<path d="M4205 3601 c-8 -15 3 -31 21 -31 9 0 14 7 12 17 -4 20 -24 28 -33 14z"/>
<path d="M1240 3555 c0 -9 6 -12 15 -9 8 4 15 10 15 15 0 5 -7 9 -15 9 -8 0
-15 -7 -15 -15z"/>
<path d="M4235 3520 c-3 -5 1 -10 9 -10 9 0 16 5 16 10 0 6 -4 10 -9 10 -6 0
-13 -4 -16 -10z"/>
<path d="M900 3434 c0 -14 3 -14 15 -4 8 7 15 14 15 16 0 2 -7 4 -15 4 -8 0
-15 -7 -15 -16z"/>
<path d="M808 3353 c7 -3 16 -2 19 1 4 3 -2 6 -13 5 -11 0 -14 -3 -6 -6z"/>
<path d="M765 3340 c-3 -6 1 -7 9 -4 18 7 21 14 7 14 -6 0 -13 -4 -16 -10z"/>
<path d="M4193 3314 c-8 -21 13 -42 28 -27 13 13 5 43 -11 43 -6 0 -13 -7 -17
-16z"/>
<path d="M726 3273 c-4 -9 0 -23 9 -32 13 -14 17 -14 30 0 19 19 10 49 -15 49
-10 0 -21 -8 -24 -17z"/>
<path d="M1002 3248 c-20 -20 -15 -66 9 -78 16 -9 26 -8 45 5 41 27 27 85 -21
85 -12 0 -26 -5 -33 -12z"/>
<path d="M4364 3175 c-24 -36 -6 -75 34 -75 51 0 71 50 34 83 -26 24 -49 21
-68 -8z"/>
<path d="M4290 3105 c-17 -20 -8 -49 16 -53 30 -4 48 21 34 47 -13 25 -33 27
-50 6z"/>
<path d="M3974 3065 c-9 -23 10 -40 25 -22 9 11 8 17 -4 27 -12 10 -16 9 -21
-5z"/>
<path d="M680 3050 c0 -15 5 -20 18 -18 9 2 17 10 17 18 0 8 -8 16 -17 18 -13
2 -18 -3 -18 -18z"/>
<path d="M4440 3010 c0 -5 5 -10 10 -10 6 0 10 5 10 10 0 6 -4 10 -10 10 -5 0
-10 -4 -10 -10z"/>
<path d="M3890 2975 c0 -8 5 -15 10 -15 6 0 10 7 10 15 0 8 -4 15 -10 15 -5 0
-10 -7 -10 -15z"/>
<path d="M4347 2957 c-8 -21 8 -39 29 -35 27 5 25 42 -2 46 -12 2 -24 -3 -27
-11z"/>
<path d="M4474 2826 c-10 -26 4 -48 28 -44 17 2 23 10 23 28 0 18 -6 26 -23
28 -13 2 -25 -3 -28 -12z"/>
<path d="M820 2725 c0 -9 5 -15 11 -13 6 2 11 8 11 13 0 5 -5 11 -11 13 -6 2
-11 -4 -11 -13z"/>
<path d="M1300 2680 c0 -5 5 -10 10 -10 6 0 10 5 10 10 0 6 -4 10 -10 10 -5 0
-10 -4 -10 -10z"/>
<path d="M4452 2668 c-21 -21 -14 -57 13 -70 34 -15 57 5 53 46 -2 25 -8 32
-28 34 -14 2 -31 -3 -38 -10z"/>
<path d="M626 2601 c-7 -11 18 -33 27 -24 4 3 7 12 7 20 0 15 -26 18 -34 4z"/>
<path d="M4482 2463 c5 -26 38 -29 38 -4 0 15 -6 21 -21 21 -14 0 -19 -5 -17
-17z"/>
<path d="M4402 2408 c-15 -15 -16 -44 -1 -53 5 -4 21 -4 35 -1 20 5 25 12 22
34 -3 30 -35 41 -56 20z"/>
<path d="M732 2334 c4 -21 22 -23 26 -1 2 10 -3 17 -13 17 -10 0 -15 -6 -13
-16z"/>
<path d="M4030 2326 c0 -2 8 -10 18 -17 15 -13 16 -12 3 4 -13 16 -21 21 -21
13z"/>
<path d="M4117 2312 c-37 -40 -14 -102 37 -102 39 0 66 26 66 63 0 52 -68 78
-103 39z"/>
<path d="M3950 2175 c0 -10 7 -15 18 -13 21 4 19 22 -2 26 -10 2 -16 -3 -16
-13z"/>
<path d="M730 2165 c0 -10 7 -15 18 -13 21 4 19 22 -2 26 -10 2 -16 -3 -16
-13z"/>
<path d="M816 1894 c-8 -21 1 -34 24 -34 25 0 35 17 20 35 -16 20 -36 19 -44
-1z"/>
<path d="M3864 1766 c-9 -22 4 -36 32 -36 21 0 25 4 22 23 -4 26 -45 37 -54
13z"/>
<path d="M4196 1714 c-9 -8 -16 -23 -16 -33 0 -21 30 -51 52 -51 19 0 48 32
48 53 0 21 -27 47 -50 47 -10 0 -26 -7 -34 -16z"/>
<path d="M3595 1700 c-8 -14 3 -30 21 -30 8 0 14 9 14 20 0 21 -24 28 -35 10z"/>
<path d="M3982 1535 c0 -16 2 -22 5 -12 2 9 2 23 0 30 -3 6 -5 -1 -5 -18z"/>
<path d="M4095 1519 c-10 -15 3 -25 16 -12 7 7 7 13 1 17 -6 3 -14 1 -17 -5z"/>
<path d="M1202 1474 c4 -21 22 -23 26 -1 2 10 -3 17 -13 17 -10 0 -15 -6 -13
-16z"/>
<path d="M3967 1474 c-16 -16 -6 -35 16 -32 12 2 22 10 22 18 0 16 -26 25 -38
14z"/>
<path d="M1377 1364 c-13 -13 -7 -42 10 -48 21 -8 36 6 31 30 -3 19 -29 30
-41 18z"/>
</g>
</svg>